<?xml version="1.0" standalone="yes"?>
<svg version="1.1" xmlns="http://www.w3.org/2000/svg" xmlns:xlink="http://www.w3.org/1999/xlink" xmlns:ev="http://www.w3.org/2001/xml-events" width="339" height="339" shape-rendering="crispEdges">
<rect width="339" height="339" x="0" y="0" style="fill:#ffffff"/>
<rect width="11" height="11" x="10" y="10" style="fill:#000"/><rect width="11" height="11" x="21" y="10" style="fill:#000"/><rect width="11" height="11" x="32" y="10" style="fill:#000"/><rect width="11" height="11" x="43" y="10" style="fill:#000"/><rect width="11" height="11" x="54" y="10" style="fill:#000"/><rect width="11" height="11" x="65" y="10" style="fill:#000"/><rect width="11" height="11" x="76" y="10" style="fill:#000"/><rect width="11" height="11" x="109" y="10" style="fill:#000"/><rect width="11" height="11" x="142" y="10" style="fill:#000"/><rect width="11" height="11" x="164" y="10" style="fill:#000"/><rect width="11" height="11" x="175" y="10" style="fill:#000"/><rect width="11" height="11" x="219" y="10" style="fill:#000"/><rect width="11" height="11" x="252" y="10" style="fill:#000"/><rect width="11" height="11" x="263" y="10" style="fill:#000"/><rect width="11" height="11" x="274" y="10" style="fill:#000"/><rect width="11" height="11" x="285" y="10" style="fill:#000"/><rect width="11" height="11" x="296" y="10" style="fill:#000"/><rect width="11" height="11" x="307" y="10" style="fill:#000"/><rect width="11" height="11" x="318" y="10" style="fill:#000"/>
<rect width="11" height="11" x="10" y="21" style="fill:#000"/><rect width="11" height="11" x="76" y="21" style="fill:#000"/><rect width="11" height="11" x="98" y="21" style="fill:#000"/><rect width="11" height="11" x="131" y="21" style="fill:#000"/><rect width="11" height="11" x="142" y="21" style="fill:#000"/><rect width="11" height="11" x="153" y="21" style="fill:#000"/><rect width="11" height="11" x="164" y="21" style="fill:#000"/><rect width="11" height="11" x="175" y="21" style="fill:#000"/><rect width="11" height="11" x="230" y="21" style="fill:#000"/><rect width="11" height="11" x="252" y="21" style="fill:#000"/><rect width="11" height="11" x="318" y="21" style="fill:#000"/>
<rect width="11" height="11" x="10" y="32" style="fill:#000"/><rect width="11" height="11" x="32" y="32" style="fill:#000"/><rect width="11" height="11" x="43" y="32" style="fill:#000"/><rect width="11" height="11" x="54" y="32" style="fill:#000"/><rect width="11" height="11" x="76" y="32" style="fill:#000"/><rect width="11" height="11" x="98" y="32" style="fill:#000"/><rect width="11" height="11" x="109" y="32" style="fill:#000"/><rect width="11" height="11" x="120" y="32" style="fill:#000"/><rect width="11" height="11" x="131" y="32" style="fill:#000"/><rect width="11" height="11" x="142" y="32" style="fill:#000"/><rect width="11" height="11" x="175" y="32" style="fill:#000"/><rect width="11" height="11" x="197" y="32" style="fill:#000"/><rect width="11" height="11" x="208" y="32" style="fill:#000"/><rect width="11" height="11" x="219" y="32" style="fill:#000"/><rect width="11" height="11" x="230" y="32" style="fill:#000"/><rect width="11" height="11" x="252" y="32" style="fill:#000"/><rect width="11" height="11" x="274" y="32" style="fill:#000"/><rect width="11" height="11" x="285" y="32" style="fill:#000"/><rect width="11" height="11" x="296" y="32" style="fill:#000"/><rect width="11" height="11" x="318" y="32" style="fill:#000"/>
<rect width="11" height="11" x="10" y="43" style="fill:#000"/><rect width="11" height="11" x="32" y="43" style="fill:#000"/><rect width="11" height="11" x="43" y="43" style="fill:#000"/><rect width="11" height="11" x="54" y="43" style="fill:#000"/><rect width="11" height="11" x="76" y="43" style="fill:#000"/><rect width="11" height="11" x="109" y="43" style="fill:#000"/><rect width="11" height="11" x="120" y="43" style="fill:#000"/><rect width="11" height="11" x="131" y="43" style="fill:#000"/><rect width="11" height="11" x="164" y="43" style="fill:#000"/><rect width="11" height="11" x="208" y="43" style="fill:#000"/><rect width="11" height="11" x="252" y="43" style="fill:#000"/><rect width="11" height="11" x="274" y="43" style="fill:#000"/><rect width="11" height="11" x="285" y="43" style="fill:#000"/><rect width="11" height="11" x="296" y="43" style="fill:#000"/><rect width="11" height="11" x="318" y="43" style="fill:#000"/>
<rect width="11" height="11" x="10" y="54" style="fill:#000"/><rect width="11" height="11" x="32" y="54" style="fill:#000"/><rect width="11" height="11" x="43" y="54" style="fill:#000"/><rect width="11" height="11" x="54" y="54" style="fill:#000"/><rect width="11" height="11" x="76" y="54" style="fill:#000"/><rect width="11" height="11" x="98" y="54" style="fill:#000"/><rect width="11" height="11" x="153" y="54" style="fill:#000"/><rect width="11" height="11" x="164" y="54" style="fill:#000"/><rect width="11" height="11" x="175" y="54" style="fill:#000"/><rect width="11" height="11" x="208" y="54" style="fill:#000"/><rect width="11" height="11" x="252" y="54" style="fill:#000"/><rect width="11" height="11" x="274" y="54" style="fill:#000"/><rect width="11" height="11" x="285" y="54" style="fill:#000"/><rect width="11" height="11" x="296" y="54" style="fill:#000"/><rect width="11" height="11" x="318" y="54" style="fill:#000"/>
<rect width="11" height="11" x="10" y="65" style="fill:#000"/><rect width="11" height="11" x="76" y="65" style="fill:#000"/><rect width="11" height="11" x="98" y="65" style="fill:#000"/><rect width="11" height="11" x="109" y="65" style="fill:#000"/><rect width="11" height="11" x="131" y="65" style="fill:#000"/><rect width="11" height="11" x="153" y="65" style="fill:#000"/><rect width="11" height="11" x="175" y="65" style="fill:#000"/><rect width="11" height="11" x="186" y="65" style="fill:#000"/><rect width="11" height="11" x="197" y="65" style="fill:#000"/><rect width="11" height="11" x="208" y="65" style="fill:#000"/><rect width="11" height="11" x="219" y="65" style="fill:#000"/><rect width="11" height="11" x="230" y="65" style="fill:#000"/><rect width="11" height="11" x="252" y="65" style="fill:#000"/><rect width="11" height="11" x="318" y="65" style="fill:#000"/>
<rect width="11" height="11" x="10" y="76" style="fill:#000"/><rect width="11" height="11" x="21" y="76" style="fill:#000"/><rect width="11" height="11" x="32" y="76" style="fill:#000"/><rect width="11" height="11" x="43" y="76" style="fill:#000"/><rect width="11" height="11" x="54" y="76" style="fill:#000"/><rect width="11" height="11" x="65" y="76" style="fill:#000"/><rect width="11" height="11" x="76" y="76" style="fill:#000"/><rect width="11" height="11" x="98" y="76" style="fill:#000"/><rect width="11" height="11" x="120" y="76" style="fill:#000"/><rect width="11" height="11" x="142" y="76" style="fill:#000"/><rect width="11" height="11" x="164" y="76" style="fill:#000"/><rect width="11" height="11" x="186" y="76" style="fill:#000"/><rect width="11" height="11" x="208" y="76" style="fill:#000"/><rect width="11" height="11" x="230" y="76" style="fill:#000"/><rect width="11" height="11" x="252" y="76" style="fill:#000"/><rect width="11" height="11" x="263" y="76" style="fill:#000"/><rect width="11" height="11" x="274" y="76" style="fill:#000"/><rect width="11" height="11" x="285" y="76" style="fill:#000"/><rect width="11" height="11" x="296" y="76" style="fill:#000"/><rect width="11" height="11" x="307" y="76" style="fill:#000"/><rect width="11" height="11" x="318" y="76" style="fill:#000"/>
<rect width="11" height="11" x="98" y="87" style="fill:#000"/><rect width="11" height="11" x="109" y="87" style="fill:#000"/><rect width="11" height="11" x="142" y="87" style="fill:#000"/><rect width="11" height="11" x="164" y="87" style="fill:#000"/><rect width="11" height="11" x="175" y="87" style="fill:#000"/><rect width="11" height="11" x="197" y="87" style="fill:#000"/><rect width="11" height="11" x="208" y="87" style="fill:#000"/><rect width="11" height="11" x="219" y="87" style="fill:#000"/><rect width="11" height="11" x="230" y="87" style="fill:#000"/>
<rect width="11" height="11" x="10" y="98" style="fill:#000"/><rect width="11" height="11" x="21" y="98" style="fill:#000"/><rect width="11" height="11" x="43" y="98" style="fill:#000"/><rect width="11" height="11" x="76" y="98" style="fill:#000"/><rect width="11" height="11" x="87" y="98" style="fill:#000"/><rect width="11" height="11" x="120" y="98" style="fill:#000"/><rect width="11" height="11" x="142" y="98" style="fill:#000"/><rect width="11" height="11" x="153" y="98" style="fill:#000"/><rect width="11" height="11" x="164" y="98" style="fill:#000"/><rect width="11" height="11" x="208" y="98" style="fill:#000"/><rect width="11" height="11" x="219" y="98" style="fill:#000"/><rect width="11" height="11" x="252" y="98" style="fill:#000"/><rect width="11" height="11" x="263" y="98" style="fill:#000"/><rect width="11" height="11" x="274" y="98" style="fill:#000"/><rect width="11" height="11" x="296" y="98" style="fill:#000"/><rect width="11" height="11" x="307" y="98" style="fill:#000"/>
<rect width="11" height="11" x="10" y="109" style="fill:#000"/><rect width="11" height="11" x="21" y="109" style="fill:#000"/><rect width="11" height="11" x="54" y="109" style="fill:#000"/><rect width="11" height="11" x="98" y="109" style="fill:#000"/><rect width="11" height="11" x="120" y="109" style="fill:#000"/><rect width="11" height="11" x="131" y="109" style="fill:#000"/><rect width="11" height="11" x="153" y="109" style="fill:#000"/><rect width="11" height="11" x="241" y="109" style="fill:#000"/><rect width="11" height="11" x="252" y="109" style="fill:#000"/><rect width="11" height="11" x="285" y="109" style="fill:#000"/><rect width="11" height="11" x="318" y="109" style="fill:#000"/>
<rect width="11" height="11" x="43" y="120" style="fill:#000"/><rect width="11" height="11" x="54" y="120" style="fill:#000"/><rect width="11" height="11" x="76" y="120" style="fill:#000"/><rect width="11" height="11" x="87" y="120" style="fill:#000"/><rect width="11" height="11" x="109" y="120" style="fill:#000"/><rect width="11" height="11" x="120" y="120" style="fill:#000"/><rect width="11" height="11" x="153" y="120" style="fill:#000"/><rect width="11" height="11" x="186" y="120" style="fill:#000"/><rect width="11" height="11" x="197" y="120" style="fill:#000"/><rect width="11" height="11" x="219" y="120" style="fill:#000"/><rect width="11" height="11" x="230" y="120" style="fill:#000"/><rect width="11" height="11" x="241" y="120" style="fill:#000"/><rect width="11" height="11" x="252" y="120" style="fill:#000"/><rect width="11" height="11" x="285" y="120" style="fill:#000"/><rect width="11" height="11" x="296" y="120" style="fill:#000"/><rect width="11" height="11" x="307" y="120" style="fill:#000"/>
<rect width="11" height="11" x="21" y="131" style="fill:#000"/><rect width="11" height="11" x="131" y="131" style="fill:#000"/><rect width="11" height="11" x="142" y="131" style="fill:#000"/><rect width="11" height="11" x="153" y="131" style="fill:#000"/><rect width="11" height="11" x="175" y="131" style="fill:#000"/><rect width="11" height="11" x="208" y="131" style="fill:#000"/><rect width="11" height="11" x="219" y="131" style="fill:#000"/><rect width="11" height="11" x="252" y="131" style="fill:#000"/><rect width="11" height="11" x="263" y="131" style="fill:#000"/><rect width="11" height="11" x="274" y="131" style="fill:#000"/><rect width="11" height="11" x="296" y="131" style="fill:#000"/><rect width="11" height="11" x="307" y="131" style="fill:#000"/>
<rect width="11" height="11" x="43" y="142" style="fill:#000"/><rect width="11" height="11" x="65" y="142" style="fill:#000"/><rect width="11" height="11" x="76" y="142" style="fill:#000"/><rect width="11" height="11" x="87" y="142" style="fill:#000"/><rect width="11" height="11" x="153" y="142" style="fill:#000"/><rect width="11" height="11" x="175" y="142" style="fill:#000"/><rect width="11" height="11" x="197" y="142" style="fill:#000"/><rect width="11" height="11" x="241" y="142" style="fill:#000"/><rect width="11" height="11" x="252" y="142" style="fill:#000"/><rect width="11" height="11" x="285" y="142" style="fill:#000"/><rect width="11" height="11" x="307" y="142" style="fill:#000"/><rect width="11" height="11" x="318" y="142" style="fill:#000"/>
<rect width="11" height="11" x="10" y="153" style="fill:#000"/><rect width="11" height="11" x="120" y="153" style="fill:#000"/><rect width="11" height="11" x="142" y="153" style="fill:#000"/><rect width="11" height="11" x="186" y="153" style="fill:#000"/><rect width="11" height="11" x="197" y="153" style="fill:#000"/><rect width="11" height="11" x="219" y="153" style="fill:#000"/><rect width="11" height="11" x="230" y="153" style="fill:#000"/><rect width="11" height="11" x="263" y="153" style="fill:#000"/>
<rect width="11" height="11" x="10" y="164" style="fill:#000"/><rect width="11" height="11" x="32" y="164" style="fill:#000"/><rect width="11" height="11" x="76" y="164" style="fill:#000"/><rect width="11" height="11" x="120" y="164" style="fill:#000"/><rect width="11" height="11" x="131" y="164" style="fill:#000"/><rect width="11" height="11" x="164" y="164" style="fill:#000"/><rect width="11" height="11" x="186" y="164" style="fill:#000"/><rect width="11" height="11" x="197" y="164" style="fill:#000"/><rect width="11" height="11" x="230" y="164" style="fill:#000"/><rect width="11" height="11" x="252" y="164" style="fill:#000"/><rect width="11" height="11" x="263" y="164" style="fill:#000"/><rect width="11" height="11" x="274" y="164" style="fill:#000"/><rect width="11" height="11" x="285" y="164" style="fill:#000"/><rect width="11" height="11" x="296" y="164" style="fill:#000"/><rect width="11" height="11" x="307" y="164" style="fill:#000"/><rect width="11" height="11" x="318" y="164" style="fill:#000"/>
<rect width="11" height="11" x="21" y="175" style="fill:#000"/><rect width="11" height="11" x="32" y="175" style="fill:#000"/><rect width="11" height="11" x="43" y="175" style="fill:#000"/><rect width="11" height="11" x="54" y="175" style="fill:#000"/><rect width="11" height="11" x="98" y="175" style="fill:#000"/><rect width="11" height="11" x="120" y="175" style="fill:#000"/><rect width="11" height="11" x="131" y="175" style="fill:#000"/><rect width="11" height="11" x="142" y="175" style="fill:#000"/><rect width="11" height="11" x="153" y="175" style="fill:#000"/><rect width="11" height="11" x="186" y="175" style="fill:#000"/><rect width="11" height="11" x="197" y="175" style="fill:#000"/><rect width="11" height="11" x="208" y="175" style="fill:#000"/><rect width="11" height="11" x="241" y="175" style="fill:#000"/><rect width="11" height="11" x="263" y="175" style="fill:#000"/><rect width="11" height="11" x="285" y="175" style="fill:#000"/><rect width="11" height="11" x="307" y="175" style="fill:#000"/>
<rect width="11" height="11" x="21" y="186" style="fill:#000"/><rect width="11" height="11" x="43" y="186" style="fill:#000"/><rect width="11" height="11" x="65" y="186" style="fill:#000"/><rect width="11" height="11" x="76" y="186" style="fill:#000"/><rect width="11" height="11" x="87" y="186" style="fill:#000"/><rect width="11" height="11" x="120" y="186" style="fill:#000"/><rect width="11" height="11" x="142" y="186" style="fill:#000"/><rect width="11" height="11" x="186" y="186" style="fill:#000"/><rect width="11" height="11" x="197" y="186" style="fill:#000"/><rect width="11" height="11" x="219" y="186" style="fill:#000"/><rect width="11" height="11" x="241" y="186" style="fill:#000"/><rect width="11" height="11" x="263" y="186" style="fill:#000"/><rect width="11" height="11" x="307" y="186" style="fill:#000"/>
<rect width="11" height="11" x="43" y="197" style="fill:#000"/><rect width="11" height="11" x="54" y="197" style="fill:#000"/><rect width="11" height="11" x="65" y="197" style="fill:#000"/><rect width="11" height="11" x="120" y="197" style="fill:#000"/><rect width="11" height="11" x="131" y="197" style="fill:#000"/><rect width="11" height="11" x="142" y="197" style="fill:#000"/><rect width="11" height="11" x="153" y="197" style="fill:#000"/><rect width="11" height="11" x="164" y="197" style="fill:#000"/><rect width="11" height="11" x="208" y="197" style="fill:#000"/><rect width="11" height="11" x="241" y="197" style="fill:#000"/><rect width="11" height="11" x="252" y="197" style="fill:#000"/><rect width="11" height="11" x="263" y="197" style="fill:#000"/><rect width="11" height="11" x="285" y="197" style="fill:#000"/><rect width="11" height="11" x="318" y="197" style="fill:#000"/>
<rect width="11" height="11" x="10" y="208" style="fill:#000"/><rect width="11" height="11" x="43" y="208" style="fill:#000"/><rect width="11" height="11" x="54" y="208" style="fill:#000"/><rect width="11" height="11" x="65" y="208" style="fill:#000"/><rect width="11" height="11" x="76" y="208" style="fill:#000"/><rect width="11" height="11" x="87" y="208" style="fill:#000"/><rect width="11" height="11" x="142" y="208" style="fill:#000"/><rect width="11" height="11" x="153" y="208" style="fill:#000"/><rect width="11" height="11" x="164" y="208" style="fill:#000"/><rect width="11" height="11" x="197" y="208" style="fill:#000"/><rect width="11" height="11" x="241" y="208" style="fill:#000"/><rect width="11" height="11" x="252" y="208" style="fill:#000"/><rect width="11" height="11" x="307" y="208" style="fill:#000"/><rect width="11" height="11" x="318" y="208" style="fill:#000"/>
<rect width="11" height="11" x="32" y="219" style="fill:#000"/><rect width="11" height="11" x="65" y="219" style="fill:#000"/><rect width="11" height="11" x="98" y="219" style="fill:#000"/><rect width="11" height="11" x="120" y="219" style="fill:#000"/><rect width="11" height="11" x="142" y="219" style="fill:#000"/><rect width="11" height="11" x="197" y="219" style="fill:#000"/><rect width="11" height="11" x="230" y="219" style="fill:#000"/><rect width="11" height="11" x="252" y="219" style="fill:#000"/><rect width="11" height="11" x="307" y="219" style="fill:#000"/><rect width="11" height="11" x="318" y="219" style="fill:#000"/>
<rect width="11" height="11" x="10" y="230" style="fill:#000"/><rect width="11" height="11" x="32" y="230" style="fill:#000"/><rect width="11" height="11" x="43" y="230" style="fill:#000"/><rect width="11" height="11" x="54" y="230" style="fill:#000"/><rect width="11" height="11" x="65" y="230" style="fill:#000"/><rect width="11" height="11" x="76" y="230" style="fill:#000"/><rect width="11" height="11" x="87" y="230" style="fill:#000"/><rect width="11" height="11" x="109" y="230" style="fill:#000"/><rect width="11" height="11" x="142" y="230" style="fill:#000"/><rect width="11" height="11" x="153" y="230" style="fill:#000"/><rect width="11" height="11" x="164" y="230" style="fill:#000"/><rect width="11" height="11" x="175" y="230" style="fill:#000"/><rect width="11" height="11" x="186" y="230" style="fill:#000"/><rect width="11" height="11" x="230" y="230" style="fill:#000"/><rect width="11" height="11" x="241" y="230" style="fill:#000"/><rect width="11" height="11" x="252" y="230" style="fill:#000"/><rect width="11" height="11" x="263" y="230" style="fill:#000"/><rect width="11" height="11" x="274" y="230" style="fill:#000"/><rect width="11" height="11" x="296" y="230" style="fill:#000"/>
<rect width="11" height="11" x="98" y="241" style="fill:#000"/><rect width="11" height="11" x="120" y="241" style="fill:#000"/><rect width="11" height="11" x="142" y="241" style="fill:#000"/><rect width="11" height="11" x="153" y="241" style="fill:#000"/><rect width="11" height="11" x="197" y="241" style="fill:#000"/><rect width="11" height="11" x="219" y="241" style="fill:#000"/><rect width="11" height="11" x="230" y="241" style="fill:#000"/><rect width="11" height="11" x="274" y="241" style="fill:#000"/><rect width="11" height="11" x="296" y="241" style="fill:#000"/><rect width="11" height="11" x="307" y="241" style="fill:#000"/><rect width="11" height="11" x="318" y="241" style="fill:#000"/>
<rect width="11" height="11" x="10" y="252" style="fill:#000"/><rect width="11" height="11" x="21" y="252" style="fill:#000"/><rect width="11" height="11" x="32" y="252" style="fill:#000"/><rect width="11" height="11" x="43" y="252" style="fill:#000"/><rect width="11" height="11" x="54" y="252" style="fill:#000"/><rect width="11" height="11" x="65" y="252" style="fill:#000"/><rect width="11" height="11" x="76" y="252" style="fill:#000"/><rect width="11" height="11" x="98" y="252" style="fill:#000"/><rect width="11" height="11" x="153" y="252" style="fill:#000"/><rect width="11" height="11" x="164" y="252" style="fill:#000"/><rect width="11" height="11" x="186" y="252" style="fill:#000"/><rect width="11" height="11" x="230" y="252" style="fill:#000"/><rect width="11" height="11" x="252" y="252" style="fill:#000"/><rect width="11" height="11" x="274" y="252" style="fill:#000"/><rect width="11" height="11" x="307" y="252" style="fill:#000"/>
<rect width="11" height="11" x="10" y="263" style="fill:#000"/><rect width="11" height="11" x="76" y="263" style="fill:#000"/><rect width="11" height="11" x="131" y="263" style="fill:#000"/><rect width="11" height="11" x="142" y="263" style="fill:#000"/><rect width="11" height="11" x="153" y="263" style="fill:#000"/><rect width="11" height="11" x="208" y="263" style="fill:#000"/><rect width="11" height="11" x="230" y="263" style="fill:#000"/><rect width="11" height="11" x="274" y="263" style="fill:#000"/><rect width="11" height="11" x="285" y="263" style="fill:#000"/><rect width="11" height="11" x="296" y="263" style="fill:#000"/><rect width="11" height="11" x="307" y="263" style="fill:#000"/>
<rect width="11" height="11" x="10" y="274" style="fill:#000"/><rect width="11" height="11" x="32" y="274" style="fill:#000"/><rect width="11" height="11" x="43" y="274" style="fill:#000"/><rect width="11" height="11" x="54" y="274" style="fill:#000"/><rect width="11" height="11" x="76" y="274" style="fill:#000"/><rect width="11" height="11" x="109" y="274" style="fill:#000"/><rect width="11" height="11" x="120" y="274" style="fill:#000"/><rect width="11" height="11" x="131" y="274" style="fill:#000"/><rect width="11" height="11" x="142" y="274" style="fill:#000"/><rect width="11" height="11" x="153" y="274" style="fill:#000"/><rect width="11" height="11" x="197" y="274" style="fill:#000"/><rect width="11" height="11" x="230" y="274" style="fill:#000"/><rect width="11" height="11" x="241" y="274" style="fill:#000"/><rect width="11" height="11" x="252" y="274" style="fill:#000"/><rect width="11" height="11" x="263" y="274" style="fill:#000"/><rect width="11" height="11" x="274" y="274" style="fill:#000"/><rect width="11" height="11" x="318" y="274" style="fill:#000"/>
<rect width="11" height="11" x="10" y="285" style="fill:#000"/><rect width="11" height="11" x="32" y="285" style="fill:#000"/><rect width="11" height="11" x="43" y="285" style="fill:#000"/><rect width="11" height="11" x="54" y="285" style="fill:#000"/><rect width="11" height="11" x="76" y="285" style="fill:#000"/><rect width="11" height="11" x="98" y="285" style="fill:#000"/><rect width="11" height="11" x="230" y="285" style="fill:#000"/><rect width="11" height="11" x="252" y="285" style="fill:#000"/><rect width="11" height="11" x="263" y="285" style="fill:#000"/><rect width="11" height="11" x="274" y="285" style="fill:#000"/><rect width="11" height="11" x="285" y="285" style="fill:#000"/><rect width="11" height="11" x="296" y="285" style="fill:#000"/>
<rect width="11" height="11" x="10" y="296" style="fill:#000"/><rect width="11" height="11" x="32" y="296" style="fill:#000"/><rect width="11" height="11" x="43" y="296" style="fill:#000"/><rect width="11" height="11" x="54" y="296" style="fill:#000"/><rect width="11" height="11" x="76" y="296" style="fill:#000"/><rect width="11" height="11" x="120" y="296" style="fill:#000"/><rect width="11" height="11" x="131" y="296" style="fill:#000"/><rect width="11" height="11" x="153" y="296" style="fill:#000"/><rect width="11" height="11" x="186" y="296" style="fill:#000"/><rect width="11" height="11" x="219" y="296" style="fill:#000"/><rect width="11" height="11" x="274" y="296" style="fill:#000"/><rect width="11" height="11" x="285" y="296" style="fill:#000"/><rect width="11" height="11" x="296" y="296" style="fill:#000"/><rect width="11" height="11" x="318" y="296" style="fill:#000"/>
<rect width="11" height="11" x="10" y="307" style="fill:#000"/><rect width="11" height="11" x="76" y="307" style="fill:#000"/><rect width="11" height="11" x="98" y="307" style="fill:#000"/><rect width="11" height="11" x="109" y="307" style="fill:#000"/><rect width="11" height="11" x="153" y="307" style="fill:#000"/><rect width="11" height="11" x="164" y="307" style="fill:#000"/><rect width="11" height="11" x="175" y="307" style="fill:#000"/><rect width="11" height="11" x="186" y="307" style="fill:#000"/><rect width="11" height="11" x="197" y="307" style="fill:#000"/><rect width="11" height="11" x="219" y="307" style="fill:#000"/><rect width="11" height="11" x="230" y="307" style="fill:#000"/><rect width="11" height="11" x="252" y="307" style="fill:#000"/><rect width="11" height="11" x="274" y="307" style="fill:#000"/><rect width="11" height="11" x="307" y="307" style="fill:#000"/>
<rect width="11" height="11" x="10" y="318" style="fill:#000"/><rect width="11" height="11" x="21" y="318" style="fill:#000"/><rect width="11" height="11" x="32" y="318" style="fill:#000"/><rect width="11" height="11" x="43" y="318" style="fill:#000"/><rect width="11" height="11" x="54" y="318" style="fill:#000"/><rect width="11" height="11" x="65" y="318" style="fill:#000"/><rect width="11" height="11" x="76" y="318" style="fill:#000"/><rect width="11" height="11" x="98" y="318" style="fill:#000"/><rect width="11" height="11" x="109" y="318" style="fill:#000"/><rect width="11" height="11" x="120" y="318" style="fill:#000"/><rect width="11" height="11" x="131" y="318" style="fill:#000"/><rect width="11" height="11" x="142" y="318" style="fill:#000"/><rect width="11" height="11" x="186" y="318" style="fill:#000"/><rect width="11" height="11" x="197" y="318" style="fill:#000"/><rect width="11" height="11" x="230" y="318" style="fill:#000"/><rect width="11" height="11" x="252" y="318" style="fill:#000"/><rect width="11" height="11" x="274" y="318" style="fill:#000"/><rect width="11" height="11" x="285" y="318" style="fill:#000"/><rect width="11" height="11" x="307" y="318" style="fill:#000"/>
</svg>